<mxfile host="app.diagrams.net" modified="2024-05-30T10:29:05.654Z" agent="Mozilla/5.0 (Macintosh; Intel Mac OS X 10_15_7) AppleWebKit/605.1.15 (KHTML, like Gecko) Version/17.4.1 Safari/605.1.15" version="24.4.9" etag="zjVU9k3fk4AetYV3BpTL" type="github">
  <diagram name="Page-1" id="B14KbPEWAFJKuHUrZKLy">
    <mxGraphModel>
      <root>
        <mxCell id="0" />
        <mxCell id="1" parent="0" />
      </root>
    </mxGraphModel>
  </diagram>
</mxfile>
